<mxfile host="app.diagrams.net" agent="Mozilla/5.0 (Windows NT 10.0; Win64; x64) AppleWebKit/537.36 (KHTML, like Gecko) Chrome/130.0.0.0 Whale/4.29.282.15 Safari/537.36" version="26.0.8">
  <diagram name="페이지-1" id="bvoraGdHje81HjMtSAm7">
    <mxGraphModel dx="1911" dy="1102" grid="1" gridSize="10" guides="1" tooltips="1" connect="1" arrows="1" fold="1" page="1" pageScale="1" pageWidth="827" pageHeight="1169" math="0" shadow="0">
      <root>
        <mxCell id="0" />
        <mxCell id="1" parent="0" />
        <mxCell id="vDnxMf5aPKPBda2evDdI-67" value="" style="rounded=0;whiteSpace=wrap;html=1;fillColor=#f5f5f5;fontColor=#333333;strokeColor=#666666;" vertex="1" parent="1">
          <mxGeometry x="-80" y="80" width="1000" height="920" as="geometry" />
        </mxCell>
        <mxCell id="vDnxMf5aPKPBda2evDdI-63" value="" style="rounded=0;whiteSpace=wrap;html=1;fillColor=#fff2cc;strokeColor=#d6b656;" vertex="1" parent="1">
          <mxGeometry x="720" y="120" width="160" height="850" as="geometry" />
        </mxCell>
        <mxCell id="vDnxMf5aPKPBda2evDdI-62" value="" style="rounded=0;whiteSpace=wrap;html=1;fillColor=#ffe6cc;strokeColor=#d79b00;" vertex="1" parent="1">
          <mxGeometry x="160" y="120" width="520" height="850" as="geometry" />
        </mxCell>
        <mxCell id="vDnxMf5aPKPBda2evDdI-61" value="" style="rounded=0;whiteSpace=wrap;html=1;fillColor=#f8cecc;strokeColor=#b85450;" vertex="1" parent="1">
          <mxGeometry x="-40" y="120" width="160" height="850" as="geometry" />
        </mxCell>
        <mxCell id="vDnxMf5aPKPBda2evDdI-57" style="edgeStyle=orthogonalEdgeStyle;rounded=0;orthogonalLoop=1;jettySize=auto;html=1;" edge="1" parent="1" source="9" target="vDnxMf5aPKPBda2evDdI-31">
          <mxGeometry relative="1" as="geometry" />
        </mxCell>
        <mxCell id="9" value="Motor&#xa;Controller" style="rounded=1;arcSize=20;strokeWidth=2" parent="1" vertex="1">
          <mxGeometry x="520" y="600" width="120" height="60" as="geometry" />
        </mxCell>
        <mxCell id="vDnxMf5aPKPBda2evDdI-44" style="edgeStyle=orthogonalEdgeStyle;rounded=0;orthogonalLoop=1;jettySize=auto;html=1;" edge="1" parent="1" source="10" target="vDnxMf5aPKPBda2evDdI-30">
          <mxGeometry relative="1" as="geometry" />
        </mxCell>
        <mxCell id="10" value="Kalman Filter" style="rounded=1;arcSize=20;strokeWidth=2" parent="1" vertex="1">
          <mxGeometry x="200" y="600" width="120" height="60" as="geometry" />
        </mxCell>
        <mxCell id="vDnxMf5aPKPBda2evDdI-43" style="edgeStyle=orthogonalEdgeStyle;rounded=0;orthogonalLoop=1;jettySize=auto;html=1;" edge="1" parent="1" source="11" target="10">
          <mxGeometry relative="1" as="geometry" />
        </mxCell>
        <mxCell id="11" value="IMU" style="rounded=1;arcSize=20;strokeWidth=2" parent="1" vertex="1">
          <mxGeometry x="-20" y="600" width="120" height="60" as="geometry" />
        </mxCell>
        <mxCell id="vDnxMf5aPKPBda2evDdI-60" style="edgeStyle=orthogonalEdgeStyle;rounded=0;orthogonalLoop=1;jettySize=auto;html=1;" edge="1" parent="1" source="vDnxMf5aPKPBda2evDdI-21" target="vDnxMf5aPKPBda2evDdI-30">
          <mxGeometry relative="1" as="geometry" />
        </mxCell>
        <mxCell id="vDnxMf5aPKPBda2evDdI-21" value="GPS" style="rounded=1;arcSize=20;strokeWidth=2" vertex="1" parent="1">
          <mxGeometry x="-20" y="720" width="120" height="60" as="geometry" />
        </mxCell>
        <mxCell id="vDnxMf5aPKPBda2evDdI-50" style="edgeStyle=orthogonalEdgeStyle;rounded=0;orthogonalLoop=1;jettySize=auto;html=1;" edge="1" parent="1" source="vDnxMf5aPKPBda2evDdI-22" target="vDnxMf5aPKPBda2evDdI-49">
          <mxGeometry relative="1" as="geometry" />
        </mxCell>
        <mxCell id="vDnxMf5aPKPBda2evDdI-22" value="ToF" style="rounded=1;arcSize=20;strokeWidth=2" vertex="1" parent="1">
          <mxGeometry x="-20" y="360" width="120" height="60" as="geometry" />
        </mxCell>
        <mxCell id="vDnxMf5aPKPBda2evDdI-51" style="edgeStyle=orthogonalEdgeStyle;rounded=0;orthogonalLoop=1;jettySize=auto;html=1;" edge="1" parent="1" source="vDnxMf5aPKPBda2evDdI-23" target="vDnxMf5aPKPBda2evDdI-49">
          <mxGeometry relative="1" as="geometry" />
        </mxCell>
        <mxCell id="vDnxMf5aPKPBda2evDdI-23" value="UltraSonic" style="rounded=1;arcSize=20;strokeWidth=2" vertex="1" parent="1">
          <mxGeometry x="-20" y="480" width="120" height="60" as="geometry" />
        </mxCell>
        <mxCell id="vDnxMf5aPKPBda2evDdI-74" style="edgeStyle=orthogonalEdgeStyle;rounded=0;orthogonalLoop=1;jettySize=auto;html=1;" edge="1" parent="1" source="vDnxMf5aPKPBda2evDdI-25" target="vDnxMf5aPKPBda2evDdI-26">
          <mxGeometry relative="1" as="geometry" />
        </mxCell>
        <mxCell id="vDnxMf5aPKPBda2evDdI-25" value="Remote&#xa;Controller" style="rounded=1;arcSize=20;strokeWidth=2" vertex="1" parent="1">
          <mxGeometry x="520" y="1040" width="120" height="60" as="geometry" />
        </mxCell>
        <mxCell id="vDnxMf5aPKPBda2evDdI-73" style="edgeStyle=orthogonalEdgeStyle;rounded=0;orthogonalLoop=1;jettySize=auto;html=1;" edge="1" parent="1" source="vDnxMf5aPKPBda2evDdI-26" target="vDnxMf5aPKPBda2evDdI-53">
          <mxGeometry relative="1" as="geometry" />
        </mxCell>
        <mxCell id="vDnxMf5aPKPBda2evDdI-26" value="Remote&#xa;Receiver" style="rounded=1;arcSize=20;strokeWidth=2" vertex="1" parent="1">
          <mxGeometry x="520" y="830" width="120" height="60" as="geometry" />
        </mxCell>
        <mxCell id="vDnxMf5aPKPBda2evDdI-54" style="edgeStyle=orthogonalEdgeStyle;rounded=0;orthogonalLoop=1;jettySize=auto;html=1;" edge="1" parent="1" source="vDnxMf5aPKPBda2evDdI-30" target="9">
          <mxGeometry relative="1" as="geometry" />
        </mxCell>
        <mxCell id="vDnxMf5aPKPBda2evDdI-30" value="Pose" style="rounded=1;arcSize=20;strokeWidth=2" vertex="1" parent="1">
          <mxGeometry x="360" y="600" width="120" height="60" as="geometry" />
        </mxCell>
        <mxCell id="vDnxMf5aPKPBda2evDdI-66" style="edgeStyle=orthogonalEdgeStyle;rounded=0;orthogonalLoop=1;jettySize=auto;html=1;" edge="1" parent="1" source="vDnxMf5aPKPBda2evDdI-31" target="vDnxMf5aPKPBda2evDdI-65">
          <mxGeometry relative="1" as="geometry" />
        </mxCell>
        <mxCell id="vDnxMf5aPKPBda2evDdI-31" value="ESC" style="rounded=1;arcSize=20;strokeWidth=2" vertex="1" parent="1">
          <mxGeometry x="740" y="600" width="120" height="60" as="geometry" />
        </mxCell>
        <mxCell id="vDnxMf5aPKPBda2evDdI-59" style="edgeStyle=orthogonalEdgeStyle;rounded=0;orthogonalLoop=1;jettySize=auto;html=1;" edge="1" parent="1" source="vDnxMf5aPKPBda2evDdI-49" target="vDnxMf5aPKPBda2evDdI-30">
          <mxGeometry relative="1" as="geometry" />
        </mxCell>
        <mxCell id="vDnxMf5aPKPBda2evDdI-49" value="Filter" style="rounded=1;arcSize=20;strokeWidth=2" vertex="1" parent="1">
          <mxGeometry x="200" y="480" width="120" height="60" as="geometry" />
        </mxCell>
        <mxCell id="vDnxMf5aPKPBda2evDdI-72" style="edgeStyle=orthogonalEdgeStyle;rounded=0;orthogonalLoop=1;jettySize=auto;html=1;" edge="1" parent="1" source="vDnxMf5aPKPBda2evDdI-53" target="9">
          <mxGeometry relative="1" as="geometry" />
        </mxCell>
        <mxCell id="vDnxMf5aPKPBda2evDdI-53" value="Ideal Position" style="rounded=1;arcSize=20;strokeWidth=2" vertex="1" parent="1">
          <mxGeometry x="520" y="720" width="120" height="60" as="geometry" />
        </mxCell>
        <mxCell id="vDnxMf5aPKPBda2evDdI-65" value="Motor" style="rounded=1;arcSize=20;strokeWidth=2" vertex="1" parent="1">
          <mxGeometry x="740" y="500" width="120" height="60" as="geometry" />
        </mxCell>
        <mxCell id="vDnxMf5aPKPBda2evDdI-68" value="Sensor" style="swimlane;whiteSpace=wrap;html=1;rounded=0;fillStyle=solid;" vertex="1" parent="1">
          <mxGeometry x="-40" y="120" width="160" height="850" as="geometry" />
        </mxCell>
        <mxCell id="vDnxMf5aPKPBda2evDdI-69" value="Processor" style="swimlane;whiteSpace=wrap;html=1;" vertex="1" parent="1">
          <mxGeometry x="160" y="120" width="520" height="850" as="geometry" />
        </mxCell>
        <mxCell id="vDnxMf5aPKPBda2evDdI-70" value="Motor" style="swimlane;whiteSpace=wrap;html=1;" vertex="1" parent="vDnxMf5aPKPBda2evDdI-69">
          <mxGeometry x="560" width="160" height="850" as="geometry" />
        </mxCell>
      </root>
    </mxGraphModel>
  </diagram>
</mxfile>
